<svg width="335" height="334" xmlns="http://www.w3.org/2000/svg" xmlns:xlink="http://www.w3.org/1999/xlink" xml:space="preserve" overflow="hidden"><g transform="translate(-1663 -866)"><g><g><g><g><path d="M259.352 128.109 268.592 120.392C278.317 110.67 277.53 94.1222 266.846 83.435 261.548 78.0354 254.325 74.9571 246.761 74.8756 240.452 74.7997 234.375 77.2516 229.886 81.6853L222.874 89.87C218.238 83.0342 215.717 74.9846 215.628 66.7253 215.628 40.3494 247.524 34.3475 248.882 34.1069 250.752 33.7765 252 31.9928 251.67 30.1228 251.339 28.2528 249.556 27.0047 247.686 27.335 247.294 27.4038 208.753 34.5537 208.753 66.7253 208.884 76.9911 212.204 86.9615 218.254 95.2566L46.4338 295.78C45.0192 297.435 45.2148 299.924 46.8707 301.338 47.5791 301.944 48.4791 302.279 49.4106 302.283 50.3312 302.27 51.217 301.93 51.9097 301.324L254.066 132.522C265.272 144.162 274.876 157.578 273.491 175.883 270.964 209.199 238.697 216.195 212.07 216.195 210.171 216.195 208.632 217.734 208.632 219.632 208.632 221.531 210.171 223.07 212.07 223.07 253.818 223.07 278.07 206.494 280.345 176.402 281.92 155.626 271.538 140.824 259.352 128.109ZM75.0303 272.972 222.478 100.894C224.021 102.78 225.637 104.63 227.329 106.442 223.48 110.363 220.21 114.811 217.614 119.652 213.936 127.009 215.401 130.79 217.271 132.667 218.628 133.984 220.468 134.685 222.358 134.606 225.148 134.474 227.87 133.7 230.312 132.344 235.742 129.429 240.689 125.693 244.977 121.268 245.352 120.89 245.685 120.502 246.049 120.12 246.094 120.079 246.149 120.065 246.19 120.024 246.232 119.982 246.242 119.917 246.283 119.873 250.153 115.936 253.443 111.468 256.052 106.604 259.731 99.2475 258.263 95.4662 256.396 93.5894 254.53 91.7125 250.735 90.2481 243.382 93.9331 239.37 96.042 235.638 98.6449 232.272 101.681 230.422 99.6944 228.666 97.6834 227.037 95.6312L234.943 86.3981C238.135 83.3673 242.387 81.7063 246.788 81.7712 252.523 81.863 257.99 84.2095 262.006 88.3025 269.912 96.2088 270.768 108.281 263.955 115.335L75.0784 273.02C75.0633 273.031 75.0417 273.028 75.0303 273.013 75.021 273.001 75.021 272.984 75.0303 272.972ZM238.697 117.714C230.536 125.434 223.977 127.951 222.197 127.741 221.987 125.977 224.476 119.491 232.103 111.378 234.273 113.52 236.479 115.624 238.697 117.714ZM237.05 106.597C244.224 100.365 249.827 98.3297 251.439 98.505 251.635 100.114 249.604 105.658 243.464 112.76 241.282 110.705 239.13 108.656 237.05 106.597Z" fill="#548235" fill-rule="nonzero" fill-opacity="1" transform="matrix(-1 0 0 1 1997 869)"/></g></g></g><path d="M105.417 7.49718C91.8576 1.004 78.2985-5.48881 60.7292 7.49718 43.1598 20.4832 21.5799 52.9483 0 85.4138" stroke="#548235" stroke-width="6.875" stroke-linecap="butt" stroke-linejoin="miter" stroke-miterlimit="8" stroke-opacity="1" fill="none" fill-rule="evenodd" transform="matrix(-0.922225 -0.386653 -0.386653 0.922225 1858.83 1119.77)"/></g></g></svg>